<mxfile host="app.diagrams.net" agent="Mozilla/5.0 (Windows NT 10.0; Win64; x64) AppleWebKit/537.36 (KHTML, like Gecko) Chrome/129.0.0.0 Safari/537.36" version="24.7.17">
  <diagram name="Page-1" id="HIbboXZ_vp0SEyaZXY4H">
    <mxGraphModel dx="1221" dy="618" grid="1" gridSize="10" guides="1" tooltips="1" connect="1" arrows="1" fold="1" page="1" pageScale="1" pageWidth="827" pageHeight="1169" math="0" shadow="0">
      <root>
        <mxCell id="0" />
        <mxCell id="1" parent="0" />
        <mxCell id="vxcRZHvHTZG35xcLbioa-1" value="deklarasi variabel" style="rounded=1;whiteSpace=wrap;html=1;" vertex="1" parent="1">
          <mxGeometry x="340" y="20" width="120" height="60" as="geometry" />
        </mxCell>
        <mxCell id="vxcRZHvHTZG35xcLbioa-2" value="" style="endArrow=classic;html=1;rounded=0;" edge="1" parent="1">
          <mxGeometry width="50" height="50" relative="1" as="geometry">
            <mxPoint x="390" y="80" as="sourcePoint" />
            <mxPoint x="390" y="120" as="targetPoint" />
          </mxGeometry>
        </mxCell>
        <mxCell id="vxcRZHvHTZG35xcLbioa-3" value="inisialisasi komunikasi serial" style="rounded=1;whiteSpace=wrap;html=1;" vertex="1" parent="1">
          <mxGeometry x="340" y="120" width="120" height="60" as="geometry" />
        </mxCell>
        <mxCell id="vxcRZHvHTZG35xcLbioa-4" value="" style="endArrow=classic;html=1;rounded=0;" edge="1" parent="1">
          <mxGeometry width="50" height="50" relative="1" as="geometry">
            <mxPoint x="390" y="180" as="sourcePoint" />
            <mxPoint x="390" y="220" as="targetPoint" />
          </mxGeometry>
        </mxCell>
        <mxCell id="vxcRZHvHTZG35xcLbioa-5" value="baca nilai analog dari potensiometer" style="rounded=1;whiteSpace=wrap;html=1;" vertex="1" parent="1">
          <mxGeometry x="340" y="220" width="120" height="60" as="geometry" />
        </mxCell>
        <mxCell id="vxcRZHvHTZG35xcLbioa-6" value="" style="endArrow=classic;html=1;rounded=0;" edge="1" parent="1">
          <mxGeometry width="50" height="50" relative="1" as="geometry">
            <mxPoint x="390" y="280" as="sourcePoint" />
            <mxPoint x="390" y="320" as="targetPoint" />
            <Array as="points">
              <mxPoint x="390" y="290" />
            </Array>
          </mxGeometry>
        </mxCell>
        <mxCell id="vxcRZHvHTZG35xcLbioa-7" value="konversi data resistansi menjadi tegangan" style="rounded=1;whiteSpace=wrap;html=1;" vertex="1" parent="1">
          <mxGeometry x="340" y="320" width="120" height="60" as="geometry" />
        </mxCell>
        <mxCell id="vxcRZHvHTZG35xcLbioa-8" value="" style="endArrow=classic;html=1;rounded=0;" edge="1" parent="1">
          <mxGeometry width="50" height="50" relative="1" as="geometry">
            <mxPoint x="390" y="380" as="sourcePoint" />
            <mxPoint x="390" y="420" as="targetPoint" />
            <Array as="points">
              <mxPoint x="390" y="390" />
            </Array>
          </mxGeometry>
        </mxCell>
        <mxCell id="vxcRZHvHTZG35xcLbioa-9" value="tampilkan teks tegangan di kolom serial monitor" style="rounded=1;whiteSpace=wrap;html=1;" vertex="1" parent="1">
          <mxGeometry x="340" y="420" width="120" height="60" as="geometry" />
        </mxCell>
        <mxCell id="vxcRZHvHTZG35xcLbioa-10" value="" style="endArrow=classic;html=1;rounded=0;" edge="1" parent="1">
          <mxGeometry width="50" height="50" relative="1" as="geometry">
            <mxPoint x="390" y="480" as="sourcePoint" />
            <mxPoint x="390" y="520" as="targetPoint" />
            <Array as="points">
              <mxPoint x="390" y="490" />
            </Array>
          </mxGeometry>
        </mxCell>
        <mxCell id="vxcRZHvHTZG35xcLbioa-11" value="tampilkan data yang telah dikonversi menjadi tegangan" style="rounded=1;whiteSpace=wrap;html=1;" vertex="1" parent="1">
          <mxGeometry x="340" y="520" width="120" height="60" as="geometry" />
        </mxCell>
        <mxCell id="vxcRZHvHTZG35xcLbioa-12" value="" style="endArrow=classic;html=1;rounded=0;" edge="1" parent="1">
          <mxGeometry width="50" height="50" relative="1" as="geometry">
            <mxPoint x="390" y="580" as="sourcePoint" />
            <mxPoint x="390" y="620" as="targetPoint" />
            <Array as="points">
              <mxPoint x="390" y="590" />
            </Array>
          </mxGeometry>
        </mxCell>
        <mxCell id="vxcRZHvHTZG35xcLbioa-13" value="tampilkan teks &quot;V&quot; dengan menambahkan line baru disetelahnya" style="rounded=1;whiteSpace=wrap;html=1;" vertex="1" parent="1">
          <mxGeometry x="340" y="620" width="120" height="60" as="geometry" />
        </mxCell>
        <mxCell id="vxcRZHvHTZG35xcLbioa-14" value="" style="endArrow=classic;html=1;rounded=0;" edge="1" parent="1">
          <mxGeometry width="50" height="50" relative="1" as="geometry">
            <mxPoint x="390" y="680" as="sourcePoint" />
            <mxPoint x="390" y="720" as="targetPoint" />
            <Array as="points">
              <mxPoint x="390" y="690" />
            </Array>
          </mxGeometry>
        </mxCell>
        <mxCell id="vxcRZHvHTZG35xcLbioa-15" value="delay 100 mili detik" style="rounded=1;whiteSpace=wrap;html=1;" vertex="1" parent="1">
          <mxGeometry x="340" y="720" width="120" height="60" as="geometry" />
        </mxCell>
      </root>
    </mxGraphModel>
  </diagram>
</mxfile>
